<?xml version="1.0" standalone="no"?>
<!DOCTYPE svg PUBLIC "-//W3C//DTD SVG 20010904//EN"
 "http://www.w3.org/TR/2001/REC-SVG-20010904/DTD/svg10.dtd">
<svg version="1.0" xmlns="http://www.w3.org/2000/svg"
 width="529.000000pt" height="529.000000pt" viewBox="0 0 529.000000 529.000000"
 preserveAspectRatio="xMidYMid meet">
<metadata>
Created by potrace 1.14, written by Peter Selinger 2001-2017
</metadata>
<g transform="translate(0.000000,529.000000) scale(0.100000,-0.100000)"
fill="#000000" stroke="none">
<path d="M2498 5205 c-2 -1 -41 -5 -88 -8 -92 -7 -101 -8 -260 -39 -760 -145
-1427 -646 -1784 -1338 -60 -118 -149 -328 -167 -395 -4 -16 -17 -64 -28 -105
-24 -88 -50 -208 -57 -265 -3 -22 -7 -47 -10 -55 -10 -30 -19 -201 -19 -370 1
-201 7 -285 36 -440 6 -30 13 -68 15 -84 29 -162 128 -437 228 -631 51 -100
189 -321 234 -376 6 -8 35 -43 63 -79 50 -62 246 -262 319 -325 334 -290 799
-506 1250 -580 47 -8 55 -9 185 -21 192 -19 493 -7 665 27 30 5 66 12 80 15
354 66 750 252 1064 499 515 403 880 1043 952 1669 3 23 7 52 10 66 12 54 11
439 -1 550 -55 490 -244 947 -551 1330 -87 109 -285 307 -394 394 -178 143
-458 308 -635 376 -84 31 -197 71 -215 75 -8 2 -46 13 -85 24 -58 16 -152 37
-250 55 -11 2 -45 7 -76 10 -31 4 -67 9 -80 12 -24 5 -396 13 -401 9z"/>
</g>
</svg>
